<?xml version="1.0" encoding="UTF-8"?>
<svg xmlns="http://www.w3.org/2000/svg" xmlns:xlink="http://www.w3.org/1999/xlink" viewBox="0 0 100 100" width="100px" height="100px">
<g id="surface9880482">
<path style="fill-rule:nonzero;fill:rgb(78.039217%,92.941177%,90.196079%);fill-opacity:1;stroke-width:4;stroke-linecap:butt;stroke-linejoin:round;stroke:rgb(100%,100%,100%);stroke-opacity:1;stroke-miterlimit:10;" d="M 156.522806 111.802201 C 156.522806 122.248241 148.050442 130.720605 137.597525 130.720605 C 135.596341 130.720605 133.677681 130.404267 131.862174 129.826606 C 128.437468 136.483464 121.519288 141.042861 113.521431 141.042861 C 107.737942 141.042861 102.532114 138.649693 98.784193 134.826126 C 92.319889 142.810229 82.45151 147.91978 71.37967 147.91978 C 51.904235 147.91978 36.121706 132.137251 36.121706 112.661816 C 36.121706 112.359231 36.15609 112.063524 36.162967 111.760939 C 35.867259 111.78157 35.564675 111.802201 35.262091 111.802201 C 24.334666 111.802201 15.477194 102.944729 15.477194 92.017304 C 15.477194 82.506525 22.195944 74.57056 31.149693 72.672531 C 32.641984 59.847077 43.528147 49.882421 56.75934 49.882421 C 59.578877 49.882421 62.281506 50.350051 64.819089 51.182158 C 68.83521 35.605937 82.932894 24.08022 99.760715 24.08022 C 119.710658 24.08022 135.878295 40.254734 135.878295 60.197799 C 135.878295 60.211553 135.878295 60.225307 135.878295 60.239061 C 145.925474 64.055751 153.07747 73.752207 153.07747 85.140385 C 153.07747 89.61726 151.963409 93.832811 150.010364 97.53947 C 153.9921 101.012315 156.522806 106.108112 156.522806 111.802201 Z M 156.522806 111.802201 " transform="matrix(0.568023,0,0,0.568023,1.15,1.15)"/>
<path style="fill-rule:nonzero;fill:rgb(99.215686%,98.823529%,93.725491%);fill-opacity:1;stroke-width:4;stroke-linecap:butt;stroke-linejoin:round;stroke:rgb(100%,100%,100%);stroke-opacity:1;stroke-miterlimit:10;" d="M 104.918405 104.05879 C 100.647838 104.05879 97.181871 100.592823 97.181871 96.322256 C 97.181871 92.044812 100.647838 88.578845 104.918405 88.578845 C 105.24162 88.578845 105.544204 88.63386 105.860543 88.675122 C 106.238773 85.718046 108.735095 83.421155 111.802201 83.421155 C 113.665846 83.421155 115.316306 84.287647 116.42349 85.62177 C 116.230937 84.913447 116.100275 84.184493 116.100275 83.421155 C 116.100275 78.669204 119.95135 74.81813 124.703301 74.81813 C 129.297083 74.81813 133.010619 78.435389 133.251312 82.967279 C 134.667957 81.158649 136.84794 79.982696 139.316754 79.982696 C 143.594198 79.982696 147.060165 83.448663 147.060165 87.71923 C 147.060165 88.042445 147.00515 88.34503 146.963888 88.654491 C 150.876855 89.046475 153.937084 92.306135 153.937084 96.322256 C 153.937084 100.592823 150.471117 104.05879 146.20055 104.05879 C 144.034321 104.05879 136.73791 104.05879 136.73791 104.05879 L 136.73791 104.918405 L 131.58022 104.918405 L 131.58022 104.05879 C 131.58022 104.05879 109.195848 104.05879 104.918405 104.05879 Z M 104.918405 104.05879 " transform="matrix(0.568023,0,0,0.568023,1.15,1.15)"/>
<path style="fill-rule:nonzero;fill:rgb(27.843139%,16.862746%,16.078432%);fill-opacity:1;stroke-width:4;stroke-linecap:butt;stroke-linejoin:round;stroke:rgb(100%,100%,100%);stroke-opacity:1;stroke-miterlimit:10;" d="M 124.703301 73.958515 C 129.097652 73.958515 132.818066 76.984359 133.842727 81.124264 C 135.37628 79.838281 137.29494 79.123081 139.316754 79.123081 C 144.061829 79.123081 147.91978 82.981033 147.91978 87.71923 C 147.91978 87.787999 147.91978 87.863645 147.912903 87.932414 C 151.894639 88.730137 154.796699 92.196104 154.796699 96.322256 C 154.796699 101.060453 150.938748 104.918405 146.20055 104.918405 L 136.73791 104.918405 C 136.263402 104.918405 135.878295 104.533297 135.878295 104.05879 C 135.878295 103.584282 136.263402 103.199175 136.73791 103.199175 L 146.20055 103.199175 C 149.99661 103.199175 153.07747 100.111438 153.07747 96.322256 C 153.07747 92.794396 150.416102 89.864829 146.881365 89.514106 C 146.64755 89.486598 146.441243 89.376567 146.296827 89.190891 C 146.152412 89.012091 146.083643 88.785152 146.11115 88.551337 L 146.145535 88.310645 C 146.173043 88.118091 146.20055 87.918661 146.20055 87.71923 C 146.20055 83.923171 143.112814 80.842311 139.316754 80.842311 C 137.219294 80.842311 135.259372 81.805079 133.932127 83.496802 C 133.767081 83.709986 133.512635 83.826894 133.258189 83.826894 C 133.168789 83.826894 133.079389 83.81314 132.996866 83.785632 C 132.65302 83.675601 132.412327 83.373017 132.398574 83.015417 C 132.178512 78.90302 128.795068 75.677744 124.703301 75.677744 C 120.432734 75.677744 116.95989 79.150589 116.95989 83.421155 C 116.95989 84.026324 117.056167 84.652124 117.248721 85.401708 C 117.351875 85.793693 117.173075 86.206308 116.815475 86.391985 C 116.69169 86.453877 116.554152 86.488261 116.42349 86.488261 C 116.169044 86.488261 115.928352 86.378231 115.756429 86.171923 C 114.766153 84.968462 113.322 84.28077 111.802201 84.28077 C 109.230233 84.28077 107.036496 86.213185 106.713281 88.785152 C 106.651388 89.218398 106.280035 89.534737 105.860543 89.534737 C 105.826158 89.534737 105.791773 89.534737 105.750512 89.52786 L 105.50982 89.493475 C 105.317266 89.465967 105.117835 89.43846 104.918405 89.43846 C 101.122345 89.43846 98.041486 92.526196 98.041486 96.322256 C 98.041486 100.111438 101.122345 103.199175 104.918405 103.199175 L 131.58022 103.199175 C 132.054728 103.199175 132.439835 103.584282 132.439835 104.05879 C 132.439835 104.533297 132.054728 104.918405 131.58022 104.918405 L 104.918405 104.918405 C 100.180207 104.918405 96.322256 101.060453 96.322256 96.322256 C 96.322256 91.577182 100.180207 87.71923 104.918405 87.71923 C 105.000928 87.71923 105.083451 87.726107 105.165974 87.726107 C 105.936189 84.72777 108.652572 82.561541 111.802201 82.561541 C 113.019415 82.561541 114.202246 82.891633 115.24066 83.503678 C 115.24066 83.476171 115.24066 83.448663 115.24066 83.421155 C 115.24066 78.201574 119.483719 73.958515 124.703301 73.958515 Z M 124.703301 73.958515 " transform="matrix(0.568023,0,0,0.568023,1.15,1.15)"/>
<path style="fill-rule:nonzero;fill:rgb(27.843139%,16.862746%,16.078432%);fill-opacity:1;stroke-width:4;stroke-linecap:butt;stroke-linejoin:round;stroke:rgb(100%,100%,100%);stroke-opacity:1;stroke-miterlimit:10;" d="M 122.11758 86 C 122.557702 86 123.011579 86.068769 123.527348 86.220062 C 123.754286 86.281954 123.891825 86.522646 123.823055 86.749584 C 123.76804 86.935261 123.602994 87.059046 123.41044 87.059046 C 123.376056 87.059046 123.334794 87.059046 123.293533 87.045292 C 122.85341 86.921507 122.475179 86.859615 122.11758 86.859615 C 119.903212 86.859615 118.03269 88.599476 117.85389 90.827597 C 117.840136 90.985767 117.736982 91.130182 117.58569 91.192074 C 117.537551 91.212705 117.482536 91.219582 117.427521 91.219582 C 117.324367 91.219582 117.221213 91.185197 117.145567 91.116428 C 116.547275 90.586905 115.790814 90.298075 115.027476 90.298075 C 113.246354 90.298075 111.802201 91.749105 111.802201 93.52335 C 111.802201 93.660888 111.733432 93.805303 111.623401 93.880949 C 111.547755 93.942842 111.451478 93.977226 111.355201 93.977226 C 111.320816 93.977226 111.279555 93.970349 111.238293 93.956596 C 110.77754 93.81218 110.364925 93.743411 109.97294 93.743411 C 107.792957 93.743411 105.963696 95.455764 105.812404 97.642624 C 105.79865 97.869563 105.606097 98.041486 105.386035 98.041486 C 105.372281 98.041486 105.365404 98.041486 105.351651 98.041486 C 105.117835 98.020855 104.939035 97.814547 104.952789 97.580732 C 105.138466 94.946872 107.33908 92.876919 109.97294 92.876919 C 110.296155 92.876919 110.626248 92.918181 110.97697 92.993827 C 111.24517 90.985767 112.957523 89.43846 115.027476 89.43846 C 115.756429 89.43846 116.478506 89.644767 117.111182 90.029875 C 117.633828 87.71923 119.703781 86 122.11758 86 Z M 122.11758 86 " transform="matrix(0.568023,0,0,0.568023,1.15,1.15)"/>
<path style="fill-rule:nonzero;fill:rgb(27.843139%,16.862746%,16.078432%);fill-opacity:1;stroke-width:4;stroke-linecap:butt;stroke-linejoin:round;stroke:rgb(100%,100%,100%);stroke-opacity:1;stroke-miterlimit:10;" d="M 146.00112 88.578845 C 146.234935 88.578845 146.46875 88.606352 146.702565 88.640737 C 146.936381 88.668245 147.101427 88.888306 147.067042 89.122121 C 147.039535 89.335306 146.853858 89.493475 146.64755 89.493475 C 146.626919 89.493475 146.606289 89.493475 146.585658 89.486598 C 146.393104 89.465967 146.20055 89.43846 146.00112 89.43846 C 144.10309 89.43846 142.404491 90.724444 141.881845 92.567458 C 141.82683 92.753135 141.654907 92.876919 141.46923 92.876919 C 141.434845 92.876919 141.393584 92.876919 141.352322 92.863165 C 141.125384 92.801273 140.987846 92.560581 141.056615 92.333643 C 141.682415 90.126152 143.717983 88.578845 146.00112 88.578845 Z M 146.00112 88.578845 " transform="matrix(0.568023,0,0,0.568023,1.15,1.15)"/>
<path style="fill-rule:nonzero;fill:rgb(29.019609%,73.333335%,100%);fill-opacity:1;stroke-width:4;stroke-linecap:butt;stroke-linejoin:round;stroke:rgb(100%,100%,100%);stroke-opacity:1;stroke-miterlimit:10;" d="M 26.659065 87.71923 L 9.45989 87.71923 C 8.985383 87.71923 8.600275 87.334122 8.600275 86.859615 C 8.600275 86.385108 8.985383 86 9.45989 86 L 26.659065 86 C 27.133572 86 27.51868 86.385108 27.51868 86.859615 C 27.51868 87.334122 27.133572 87.71923 26.659065 87.71923 Z M 26.659065 87.71923 " transform="matrix(0.568023,0,0,0.568023,1.15,1.15)"/>
<path style="fill-rule:nonzero;fill:rgb(29.019609%,73.333335%,100%);fill-opacity:1;stroke-width:4;stroke-linecap:butt;stroke-linejoin:round;stroke:rgb(100%,100%,100%);stroke-opacity:1;stroke-miterlimit:10;" d="M 31.816754 87.71923 L 30.097524 87.71923 C 29.623017 87.71923 29.237909 87.334122 29.237909 86.859615 C 29.237909 86.385108 29.623017 86 30.097524 86 L 31.816754 86 C 32.298138 86 32.683246 86.385108 32.683246 86.859615 C 32.683246 87.334122 32.298138 87.71923 31.816754 87.71923 Z M 31.816754 87.71923 " transform="matrix(0.568023,0,0,0.568023,1.15,1.15)"/>
<path style="fill-rule:nonzero;fill:rgb(29.019609%,73.333335%,100%);fill-opacity:1;stroke-width:4;stroke-linecap:butt;stroke-linejoin:round;stroke:rgb(100%,100%,100%);stroke-opacity:1;stroke-miterlimit:10;" d="M 40.406026 91.157689 L 24.939835 91.157689 C 24.465328 91.157689 24.08022 90.772582 24.08022 90.298075 C 24.08022 89.823567 24.465328 89.43846 24.939835 89.43846 L 40.406026 89.43846 C 40.880534 89.43846 41.265641 89.823567 41.265641 90.298075 C 41.265641 90.772582 40.880534 91.157689 40.406026 91.157689 Z M 40.406026 91.157689 " transform="matrix(0.568023,0,0,0.568023,1.15,1.15)"/>
<path style="fill-rule:nonzero;fill:rgb(29.019609%,73.333335%,100%);fill-opacity:1;stroke-width:4;stroke-linecap:butt;stroke-linejoin:round;stroke:rgb(100%,100%,100%);stroke-opacity:1;stroke-miterlimit:10;" d="M 21.501375 91.157689 L 19.782146 91.157689 C 19.307638 91.157689 18.922531 90.772582 18.922531 90.298075 C 18.922531 89.823567 19.307638 89.43846 19.782146 89.43846 L 21.501375 89.43846 C 21.975883 89.43846 22.36099 89.823567 22.36099 90.298075 C 22.36099 90.772582 21.975883 91.157689 21.501375 91.157689 Z M 21.501375 91.157689 " transform="matrix(0.568023,0,0,0.568023,1.15,1.15)"/>
<path style="fill-rule:nonzero;fill:rgb(29.019609%,73.333335%,100%);fill-opacity:1;stroke-width:4;stroke-linecap:butt;stroke-linejoin:round;stroke:rgb(100%,100%,100%);stroke-opacity:1;stroke-miterlimit:10;" d="M 16.336809 91.157689 L 12.89835 91.157689 C 12.423842 91.157689 12.038735 90.772582 12.038735 90.298075 C 12.038735 89.823567 12.423842 89.43846 12.89835 89.43846 L 16.336809 89.43846 C 16.811317 89.43846 17.203301 89.823567 17.203301 90.298075 C 17.203301 90.772582 16.818193 91.157689 16.336809 91.157689 Z M 16.336809 91.157689 " transform="matrix(0.568023,0,0,0.568023,1.15,1.15)"/>
<path style="fill-rule:nonzero;fill:rgb(29.019609%,73.333335%,100%);fill-opacity:1;stroke-width:4;stroke-linecap:butt;stroke-linejoin:round;stroke:rgb(100%,100%,100%);stroke-opacity:1;stroke-miterlimit:10;" d="M 26.659065 94.603026 L 23.220605 94.603026 C 22.746098 94.603026 22.36099 94.217919 22.36099 93.743411 C 22.36099 93.262027 22.746098 92.876919 23.220605 92.876919 L 26.659065 92.876919 C 27.133572 92.876919 27.51868 93.262027 27.51868 93.743411 C 27.51868 94.217919 27.133572 94.603026 26.659065 94.603026 Z M 26.659065 94.603026 " transform="matrix(0.568023,0,0,0.568023,1.15,1.15)"/>
<path style="fill-rule:nonzero;fill:rgb(29.019609%,73.333335%,100%);fill-opacity:1;stroke-width:4;stroke-linecap:butt;stroke-linejoin:round;stroke:rgb(100%,100%,100%);stroke-opacity:1;stroke-miterlimit:10;" d="M 32.683246 79.982696 C 32.683246 80.457203 32.298138 80.842311 31.816754 80.842311 C 31.51417 80.842311 30.406986 80.842311 30.097524 80.842311 C 29.623017 80.842311 29.237909 80.457203 29.237909 79.982696 C 29.237909 79.508188 29.623017 79.123081 30.097524 79.123081 C 30.406986 79.123081 31.51417 79.123081 31.816754 79.123081 C 32.298138 79.123081 32.683246 79.508188 32.683246 79.982696 Z M 32.683246 79.982696 " transform="matrix(0.568023,0,0,0.568023,1.15,1.15)"/>
<path style="fill-rule:nonzero;fill:rgb(29.019609%,73.333335%,100%);fill-opacity:1;stroke-width:4;stroke-linecap:butt;stroke-linejoin:round;stroke:rgb(100%,100%,100%);stroke-opacity:1;stroke-miterlimit:10;" d="M 32.683246 83.421155 C 32.683246 83.895663 32.298138 84.28077 31.816754 84.28077 C 31.51417 84.28077 23.52319 84.28077 23.220605 84.28077 C 22.746098 84.28077 22.36099 83.895663 22.36099 83.421155 C 22.36099 82.946648 22.746098 82.561541 23.220605 82.561541 C 23.52319 82.561541 31.51417 82.561541 31.816754 82.561541 C 32.298138 82.561541 32.683246 82.946648 32.683246 83.421155 Z M 32.683246 83.421155 " transform="matrix(0.568023,0,0,0.568023,1.15,1.15)"/>
<path style="fill-rule:nonzero;fill:rgb(29.019609%,73.333335%,100%);fill-opacity:1;stroke-width:4;stroke-linecap:butt;stroke-linejoin:round;stroke:rgb(100%,100%,100%);stroke-opacity:1;stroke-miterlimit:10;" d="M 41.279395 86.859615 C 41.279395 87.334122 40.894287 87.71923 40.41978 87.71923 C 40.117196 87.71923 35.564675 87.71923 35.262091 87.71923 C 34.787583 87.71923 34.402476 87.334122 34.402476 86.859615 C 34.402476 86.385108 34.787583 86 35.262091 86 C 35.564675 86 40.117196 86 40.41978 86 C 40.894287 86 41.279395 86.385108 41.279395 86.859615 Z M 41.279395 86.859615 " transform="matrix(0.568023,0,0,0.568023,1.15,1.15)"/>
<path style="fill-rule:nonzero;fill:rgb(29.019609%,73.333335%,100%);fill-opacity:1;stroke-width:4;stroke-linecap:butt;stroke-linejoin:round;stroke:rgb(100%,100%,100%);stroke-opacity:1;stroke-miterlimit:10;" d="M 124.703301 41.279395 L 107.497249 41.279395 C 107.022742 41.279395 106.637635 40.894287 106.637635 40.41978 C 106.637635 39.945273 107.022742 39.560165 107.497249 39.560165 L 124.703301 39.560165 C 125.177809 39.560165 125.562916 39.945273 125.562916 40.41978 C 125.562916 40.894287 125.177809 41.279395 124.703301 41.279395 Z M 124.703301 41.279395 " transform="matrix(0.568023,0,0,0.568023,1.15,1.15)"/>
<path style="fill-rule:nonzero;fill:rgb(29.019609%,73.333335%,100%);fill-opacity:1;stroke-width:4;stroke-linecap:butt;stroke-linejoin:round;stroke:rgb(100%,100%,100%);stroke-opacity:1;stroke-miterlimit:10;" d="M 131.58022 41.279395 L 128.141761 41.279395 C 127.667253 41.279395 127.282146 40.894287 127.282146 40.41978 C 127.282146 39.945273 127.667253 39.560165 128.141761 39.560165 L 131.58022 39.560165 C 132.054728 39.560165 132.439835 39.945273 132.439835 40.41978 C 132.439835 40.894287 132.054728 41.279395 131.58022 41.279395 Z M 131.58022 41.279395 " transform="matrix(0.568023,0,0,0.568023,1.15,1.15)"/>
<path style="fill-rule:nonzero;fill:rgb(29.019609%,73.333335%,100%);fill-opacity:1;stroke-width:4;stroke-linecap:butt;stroke-linejoin:round;stroke:rgb(100%,100%,100%);stroke-opacity:1;stroke-miterlimit:10;" d="M 140.183246 44.717854 L 122.977194 44.717854 C 122.502687 44.717854 122.11758 44.332747 122.11758 43.85824 C 122.11758 43.383732 122.502687 42.998625 122.977194 42.998625 L 140.183246 42.998625 C 140.657754 42.998625 141.042861 43.383732 141.042861 43.85824 C 141.042861 44.332747 140.657754 44.717854 140.183246 44.717854 Z M 140.183246 44.717854 " transform="matrix(0.568023,0,0,0.568023,1.15,1.15)"/>
<path style="fill-rule:nonzero;fill:rgb(29.019609%,73.333335%,100%);fill-opacity:1;stroke-width:4;stroke-linecap:butt;stroke-linejoin:round;stroke:rgb(100%,100%,100%);stroke-opacity:1;stroke-miterlimit:10;" d="M 119.538735 44.717854 L 117.819505 44.717854 C 117.344998 44.717854 116.95989 44.332747 116.95989 43.85824 C 116.95989 43.383732 117.344998 42.998625 117.819505 42.998625 L 119.538735 42.998625 C 120.013242 42.998625 120.39835 43.383732 120.39835 43.85824 C 120.39835 44.332747 120.013242 44.717854 119.538735 44.717854 Z M 119.538735 44.717854 " transform="matrix(0.568023,0,0,0.568023,1.15,1.15)"/>
<path style="fill-rule:nonzero;fill:rgb(29.019609%,73.333335%,100%);fill-opacity:1;stroke-width:4;stroke-linecap:butt;stroke-linejoin:round;stroke:rgb(100%,100%,100%);stroke-opacity:1;stroke-miterlimit:10;" d="M 114.32603 44.717854 L 110.942586 44.717854 C 110.468078 44.717854 110.082971 44.332747 110.082971 43.85824 C 110.082971 43.383732 110.468078 42.998625 110.942586 42.998625 L 114.32603 42.998625 C 114.800538 42.998625 115.185645 43.383732 115.185645 43.85824 C 115.185645 44.332747 114.800538 44.717854 114.32603 44.717854 Z M 114.32603 44.717854 " transform="matrix(0.568023,0,0,0.568023,1.15,1.15)"/>
<path style="fill-rule:nonzero;fill:rgb(29.019609%,73.333335%,100%);fill-opacity:1;stroke-width:4;stroke-linecap:butt;stroke-linejoin:round;stroke:rgb(100%,100%,100%);stroke-opacity:1;stroke-miterlimit:10;" d="M 129.86099 37.840935 L 121.257965 37.840935 C 120.783457 37.840935 120.39835 37.455828 120.39835 36.98132 C 120.39835 36.506813 120.783457 36.121706 121.257965 36.121706 L 129.86099 36.121706 C 130.335498 36.121706 130.720605 36.506813 130.720605 36.98132 C 130.720605 37.455828 130.335498 37.840935 129.86099 37.840935 Z M 129.86099 37.840935 " transform="matrix(0.568023,0,0,0.568023,1.15,1.15)"/>
<path style="fill-rule:nonzero;fill:rgb(29.019609%,73.333335%,100%);fill-opacity:1;stroke-width:4;stroke-linecap:butt;stroke-linejoin:round;stroke:rgb(100%,100%,100%);stroke-opacity:1;stroke-miterlimit:10;" d="M 124.703301 48.163191 L 121.257965 48.163191 C 120.783457 48.163191 120.39835 47.778083 120.39835 47.296699 C 120.39835 46.822192 120.783457 46.437084 121.257965 46.437084 L 124.703301 46.437084 C 125.177809 46.437084 125.562916 46.822192 125.562916 47.296699 C 125.562916 47.778083 125.177809 48.163191 124.703301 48.163191 Z M 124.703301 48.163191 " transform="matrix(0.568023,0,0,0.568023,1.15,1.15)"/>
<path style="fill-rule:nonzero;fill:rgb(61.960787%,76.47059%,94.509804%);fill-opacity:1;stroke-width:4;stroke-linecap:butt;stroke-linejoin:round;stroke:rgb(100%,100%,100%);stroke-opacity:1;stroke-miterlimit:10;" d="M 49.449175 86 C 49.449175 63.911336 67.356672 46.010715 89.43846 46.010715 C 111.527124 46.010715 129.427745 63.911336 129.427745 86 C 129.427745 108.088664 111.527124 125.989285 89.43846 125.989285 C 67.356672 125.989285 49.449175 108.088664 49.449175 86 Z M 49.449175 86 " transform="matrix(0.568023,0,0,0.568023,1.15,1.15)"/>
<path style="fill-rule:nonzero;fill:rgb(27.843139%,16.862746%,16.078432%);fill-opacity:1;stroke-width:4;stroke-linecap:butt;stroke-linejoin:round;stroke:rgb(100%,100%,100%);stroke-opacity:1;stroke-miterlimit:10;" d="M 89.43846 127.192746 C 66.723996 127.192746 48.245714 108.714464 48.245714 86 C 48.245714 63.285536 66.723996 44.807254 89.43846 44.807254 C 112.152924 44.807254 130.631205 63.285536 130.631205 86 C 130.631205 108.714464 112.152924 127.192746 89.43846 127.192746 Z M 89.43846 47.214176 C 68.051241 47.214176 50.652636 64.612782 50.652636 86 C 50.652636 107.387219 68.051241 124.785824 89.43846 124.785824 C 110.825678 124.785824 128.224284 107.387219 128.224284 86 C 128.224284 64.612782 110.825678 47.214176 89.43846 47.214176 Z M 89.43846 47.214176 " transform="matrix(0.568023,0,0,0.568023,1.15,1.15)"/>
<path style="fill-rule:nonzero;fill:rgb(61.960787%,76.47059%,94.509804%);fill-opacity:1;stroke-width:4;stroke-linecap:butt;stroke-linejoin:round;stroke:rgb(100%,100%,100%);stroke-opacity:1;stroke-miterlimit:10;" d="M 55.631525 86.206308 C 55.631525 67.65238 70.726363 52.605681 89.335306 52.605681 C 107.951126 52.605681 123.039087 67.65238 123.039087 86.206308 C 123.039087 104.760236 107.951126 119.806935 89.335306 119.806935 C 70.726363 119.806935 55.631525 104.760236 55.631525 86.206308 Z M 55.631525 86.206308 " transform="matrix(0.568023,0,0,0.568023,1.15,1.15)"/>
<path style="fill-rule:nonzero;fill:rgb(27.843139%,16.862746%,16.078432%);fill-opacity:1;stroke-width:4;stroke-linecap:butt;stroke-linejoin:round;stroke:rgb(100%,100%,100%);stroke-opacity:1;stroke-miterlimit:10;" d="M 121.471149 77.376344 C 121.106672 77.376344 120.762826 77.142528 120.652796 76.771175 C 120.501504 76.296667 120.350211 75.829037 120.185165 75.368283 C 119.538735 73.56653 118.720381 71.806039 117.76449 70.141825 C 117.523798 69.736086 117.661336 69.206564 118.073951 68.972748 C 118.486566 68.725179 119.009212 68.869595 119.249904 69.28221 C 120.260811 71.035824 121.120426 72.885715 121.801241 74.783745 C 121.973164 75.272006 122.13821 75.767144 122.296379 76.262283 C 122.433918 76.716159 122.179472 77.197544 121.725595 77.335082 C 121.643072 77.36259 121.553672 77.376344 121.471149 77.376344 Z M 121.471149 77.376344 " transform="matrix(0.568023,0,0,0.568023,1.15,1.15)"/>
<path style="fill-rule:nonzero;fill:rgb(27.843139%,16.862746%,16.078432%);fill-opacity:1;stroke-width:4;stroke-linecap:butt;stroke-linejoin:round;stroke:rgb(100%,100%,100%);stroke-opacity:1;stroke-miterlimit:10;" d="M 89.43846 120.460242 C 70.437532 120.460242 54.978218 105.049066 54.978218 86.103154 C 54.978218 67.157242 70.437532 51.746066 89.43846 51.746066 C 99.299962 51.746066 108.707587 55.968494 115.254414 63.340552 C 115.742675 63.890705 116.22406 64.468366 116.677936 65.059781 C 116.973644 65.431135 116.904875 65.974412 116.533521 66.263242 C 116.155291 66.55895 115.618891 66.49018 115.323183 66.11195 C 114.889937 65.554919 114.436061 65.004766 113.96843 64.48212 C 107.751695 57.481416 98.811701 53.465296 89.43846 53.465296 C 71.386547 53.465296 56.704325 68.106256 56.704325 86.103154 C 56.704325 104.100051 71.386547 118.741012 89.43846 118.741012 C 107.490372 118.741012 122.179472 104.100051 122.179472 86.103154 C 122.179472 84.45957 122.055687 82.815987 121.814995 81.206787 C 121.746226 80.739157 122.069441 80.299034 122.537072 80.230265 C 123.004702 80.154619 123.444825 80.477834 123.513594 80.945465 C 123.76804 82.637187 123.898702 84.37017 123.898702 86.103154 C 123.898702 105.049066 108.439387 120.460242 89.43846 120.460242 Z M 89.43846 120.460242 " transform="matrix(0.568023,0,0,0.568023,1.15,1.15)"/>
<path style="fill-rule:nonzero;fill:rgb(99.215686%,98.823529%,93.725491%);fill-opacity:1;stroke-width:4;stroke-linecap:butt;stroke-linejoin:round;stroke:rgb(100%,100%,100%);stroke-opacity:1;stroke-miterlimit:10;" d="M 62.776644 127.282146 L 50.742036 127.282146 L 50.742036 126.422531 C 50.742036 126.422531 41.162487 126.422531 37.840935 126.422531 C 34.512506 126.422531 31.816754 123.726779 31.816754 120.39835 C 31.816754 117.076798 34.512506 114.381045 37.840935 114.381045 C 38.16415 114.381045 38.466735 114.429184 38.776196 114.477322 C 39.140673 112.462385 40.88741 110.942586 42.998625 110.942586 C 44.016409 110.942586 44.937916 111.307063 45.673746 111.898478 C 45.632485 111.582139 45.577469 111.265801 45.577469 110.942586 C 45.577469 107.13965 48.658329 104.05879 52.461265 104.05879 C 55.769064 104.05879 58.526708 106.396942 59.186892 109.50531 C 60.287199 108.281218 61.862014 107.497249 63.643136 107.497249 C 66.964688 107.497249 69.66044 110.193002 69.66044 113.521431 C 69.66044 113.844646 69.612302 114.14723 69.564163 114.456692 C 72.521239 114.834922 74.81813 117.338121 74.81813 120.39835 C 74.81813 123.726779 72.122377 126.422531 68.800825 126.422531 C 65.472396 126.422531 62.776644 126.422531 62.776644 126.422531 Z M 62.776644 127.282146 " transform="matrix(0.568023,0,0,0.568023,1.15,1.15)"/>
<path style="fill-rule:nonzero;fill:rgb(27.843139%,16.862746%,16.078432%);fill-opacity:1;stroke-width:4;stroke-linecap:butt;stroke-linejoin:round;stroke:rgb(100%,100%,100%);stroke-opacity:1;stroke-miterlimit:10;" d="M 65.788735 118.67912 C 65.554919 118.67912 65.362366 118.486566 65.362366 118.252751 C 65.362366 116.148414 67.074719 114.436061 69.172179 114.436061 C 69.234071 114.449815 70.444409 114.436061 71.317778 114.669876 C 71.544716 114.731768 71.682254 114.965584 71.620362 115.192522 C 71.55847 115.426337 71.317778 115.563876 71.090839 115.495106 C 70.327501 115.288799 69.199687 115.288799 69.179056 115.295676 C 67.549226 115.295676 66.221981 116.622921 66.221981 118.252751 C 66.221981 118.486566 66.029427 118.67912 65.788735 118.67912 Z M 65.788735 118.67912 " transform="matrix(0.568023,0,0,0.568023,1.15,1.15)"/>
<path style="fill-rule:nonzero;fill:rgb(27.843139%,16.862746%,16.078432%);fill-opacity:1;stroke-width:4;stroke-linecap:butt;stroke-linejoin:round;stroke:rgb(100%,100%,100%);stroke-opacity:1;stroke-miterlimit:10;" d="M 53.32088 126.422531 C 53.32088 125.948023 53.705988 125.562916 54.180495 125.562916 C 54.655003 125.562916 55.04011 125.948023 55.04011 126.422531 C 55.04011 126.897038 54.655003 127.282146 54.180495 127.282146 C 53.705988 127.282146 53.32088 126.897038 53.32088 126.422531 Z M 53.32088 126.422531 " transform="matrix(0.568023,0,0,0.568023,1.15,1.15)"/>
<path style="fill-rule:nonzero;fill:rgb(27.843139%,16.862746%,16.078432%);fill-opacity:1;stroke-width:4;stroke-linecap:butt;stroke-linejoin:round;stroke:rgb(100%,100%,100%);stroke-opacity:1;stroke-miterlimit:10;" d="M 68.800825 127.282146 L 62.776644 127.282146 C 62.302137 127.282146 61.917029 126.897038 61.917029 126.422531 C 61.917029 125.948023 62.302137 125.562916 62.776644 125.562916 L 68.800825 125.562916 C 71.64787 125.562916 73.958515 123.245394 73.958515 120.39835 C 73.958515 117.826382 72.0261 115.639522 69.454133 115.30943 C 69.227194 115.281922 69.020887 115.158137 68.876471 114.972461 C 68.738933 114.786784 68.683918 114.552968 68.718302 114.32603 C 68.759564 114.05783 68.800825 113.796507 68.800825 113.521431 C 68.800825 110.674386 66.483304 108.356864 63.643136 108.356864 C 62.178352 108.356864 60.823599 108.96891 59.826446 110.082971 C 59.606384 110.316786 59.269415 110.41994 58.959954 110.337417 C 58.650493 110.248017 58.4098 110.000448 58.341031 109.68411 C 57.756493 106.926465 55.280802 104.918405 52.461265 104.918405 C 49.139713 104.918405 46.437084 107.621034 46.437084 110.942586 C 46.437084 111.183278 46.478346 111.42397 46.51273 111.657785 C 46.560869 112.008508 46.4027 112.414247 46.093238 112.58617 C 45.783777 112.764969 45.412423 112.792477 45.137347 112.572416 C 44.511547 112.063524 43.775717 111.802201 42.998625 111.802201 C 41.341287 111.802201 39.917765 112.991908 39.622057 114.628615 C 39.539534 115.089368 39.113165 115.391953 38.645535 115.323183 C 38.377335 115.281922 38.116012 115.24066 37.840935 115.24066 C 34.993891 115.24066 32.683246 117.558182 32.683246 120.39835 C 32.683246 123.245394 34.993891 125.562916 37.840935 125.562916 L 50.742036 125.562916 C 51.216543 125.562916 51.601651 125.948023 51.601651 126.422531 C 51.601651 126.897038 51.216543 127.282146 50.742036 127.282146 L 37.840935 127.282146 C 34.044876 127.282146 30.957139 124.194409 30.957139 120.39835 C 30.957139 116.60229 34.044876 113.521431 37.840935 113.521431 C 37.944089 113.521431 38.040366 113.521431 38.136643 113.528307 C 38.851842 111.492739 40.784257 110.082971 42.998625 110.082971 C 43.596917 110.082971 44.188332 110.186125 44.738485 110.392432 C 45.020439 106.376312 48.376375 103.199175 52.461265 103.199175 C 55.610894 103.199175 58.423554 105.138466 59.606384 107.971757 C 60.775461 107.112142 62.185229 106.637635 63.643136 106.637635 C 67.432318 106.637635 70.520055 109.725371 70.520055 113.521431 C 70.520055 113.603954 70.520055 113.686477 70.513178 113.762123 C 73.511515 114.532338 75.677744 117.248721 75.677744 120.39835 C 75.677744 124.194409 72.596885 127.282146 68.800825 127.282146 Z M 68.800825 127.282146 " transform="matrix(0.568023,0,0,0.568023,1.15,1.15)"/>
<path style="fill-rule:nonzero;fill:rgb(27.843139%,16.862746%,16.078432%);fill-opacity:1;stroke-width:4;stroke-linecap:butt;stroke-linejoin:round;stroke:rgb(100%,100%,100%);stroke-opacity:1;stroke-miterlimit:10;" d="M 60.197799 126.422531 C 60.197799 126.897038 59.812692 127.282146 59.338185 127.282146 C 59.063108 127.282146 57.894032 127.282146 57.618955 127.282146 C 57.144447 127.282146 56.75934 126.897038 56.75934 126.422531 C 56.75934 125.948023 57.144447 125.562916 57.618955 125.562916 C 57.894032 125.562916 59.063108 125.562916 59.338185 125.562916 C 59.812692 125.562916 60.197799 125.948023 60.197799 126.422531 Z M 60.197799 126.422531 " transform="matrix(0.568023,0,0,0.568023,1.15,1.15)"/>
<path style="fill-rule:nonzero;fill:rgb(29.019609%,73.333335%,100%);fill-opacity:1;stroke-width:4;stroke-linecap:butt;stroke-linejoin:round;stroke:rgb(100%,100%,100%);stroke-opacity:1;stroke-miterlimit:10;" d="M 107.400973 78.119051 C 107.414726 78.497281 107.42848 78.875512 107.42848 79.260619 C 107.42848 90.875736 98.770439 104.271974 82.946648 104.271974 C 78.084666 104.271974 73.56653 102.820944 69.756717 100.324623 C 70.430655 100.407146 71.118347 100.448407 71.812916 100.448407 C 75.842791 100.448407 79.54945 99.045516 82.492771 96.686732 C 78.731097 96.611086 75.55396 94.073503 74.453653 90.580028 C 74.983176 90.683182 75.519575 90.738197 76.076606 90.738197 C 76.860575 90.738197 77.617036 90.628167 78.339112 90.428736 C 74.405514 89.61726 71.441562 86.068769 71.441562 81.805079 C 71.441562 81.770695 71.441562 81.729433 71.441562 81.695049 C 72.603762 82.355233 73.931007 82.747217 75.340775 82.795356 C 73.030131 81.213664 71.517208 78.524789 71.517208 75.471437 C 71.517208 73.862238 71.9367 72.349316 72.679408 71.056455 C 76.922467 76.372313 83.262986 79.872665 90.414982 80.237142 C 90.270567 79.597588 90.194921 78.92365 90.194921 78.235958 C 90.194921 73.380853 94.039119 69.447256 98.79107 69.447256 C 101.266761 69.447256 103.508636 70.513178 105.076574 72.218654 C 107.036496 71.82667 108.872633 71.097716 110.536848 70.086809 C 109.897294 72.143008 108.528787 73.862238 106.754542 74.948791 C 108.50128 74.742483 110.158617 74.267976 111.699047 73.56653 C 110.543725 75.333899 109.085818 76.881205 107.400973 78.119051 Z M 107.400973 78.119051 " transform="matrix(0.568023,0,0,0.568023,1.15,1.15)"/>
<path style="fill-rule:nonzero;fill:rgb(27.843139%,16.862746%,16.078432%);fill-opacity:1;stroke-width:4;stroke-linecap:butt;stroke-linejoin:round;stroke:rgb(100%,100%,100%);stroke-opacity:1;stroke-miterlimit:10;" d="M 82.946648 105.131589 C 78.09842 105.131589 73.373977 103.721821 69.289087 101.046699 C 68.952118 100.826638 68.814579 100.407146 68.952118 100.035792 C 69.089656 99.657562 69.467886 99.409992 69.859871 99.471885 C 73.484007 99.905131 77.149405 99.114285 80.230265 97.223132 C 77.156282 96.397902 74.632453 94.025365 73.635299 90.834474 C 73.5459 90.545644 73.614669 90.229305 73.814099 90.002367 C 74.01353 89.775429 74.322991 89.672275 74.618699 89.734167 C 74.632453 89.734167 74.646207 89.741044 74.653084 89.741044 C 72.170516 87.980553 70.581947 85.044108 70.581947 81.805079 C 70.581947 81.502495 70.746993 81.158649 71.008316 81.007357 C 71.276516 80.849188 71.599731 80.794172 71.867931 80.945465 C 72.09487 81.076126 72.328685 81.193034 72.5625 81.296187 C 71.338408 79.645727 70.650717 77.610159 70.650717 75.478314 C 70.650717 73.772838 71.097716 72.09487 71.929824 70.630086 C 72.074239 70.382517 72.328685 70.217471 72.610639 70.19684 C 72.906346 70.176209 73.174546 70.293117 73.353346 70.520055 C 77.348836 75.526452 83.146079 78.689835 89.390321 79.301881 C 89.34906 78.951158 89.335306 78.593558 89.335306 78.235958 C 89.335306 72.913223 93.578365 68.587641 98.79107 68.587641 C 101.239253 68.587641 103.604913 69.564163 105.358528 71.283393 C 107.022742 70.898286 108.61131 70.251855 110.096725 69.357856 C 110.399309 69.165302 110.784417 69.19281 111.06637 69.412871 C 111.348324 69.632933 111.465232 70.004286 111.355201 70.348132 C 111.004478 71.46907 110.461202 72.500608 109.752879 73.408361 C 110.289279 73.229561 110.818801 73.023254 111.341447 72.789438 C 111.685293 72.631269 112.097908 72.720669 112.345477 73.0095 C 112.593046 73.29833 112.620554 73.717823 112.414247 74.041038 C 111.279555 75.774021 109.890417 77.286944 108.274341 78.538543 C 108.281218 78.779235 108.288095 79.019927 108.288095 79.260619 C 108.288095 91.976043 98.811701 105.131589 82.946648 105.131589 Z M 73.195177 101.259884 C 76.248529 102.676529 79.563204 103.412359 82.946648 103.412359 C 97.732024 103.412359 106.568865 91.130182 106.568865 79.260619 C 106.568865 78.889266 106.561988 78.517912 106.541358 78.153435 C 106.534481 77.864605 106.665142 77.596405 106.892081 77.424482 C 107.731065 76.805559 108.50128 76.117867 109.209602 75.361406 C 108.439387 75.560837 107.655419 75.705252 106.857696 75.801529 C 106.465712 75.863421 106.073727 75.615852 105.943066 75.230745 C 105.812404 74.852514 105.963696 74.426145 106.307542 74.212961 C 107.22905 73.649053 108.019895 72.899469 108.638818 72.019223 C 107.545388 72.479977 106.410696 72.8307 105.24162 73.064515 C 104.945912 73.126407 104.643328 73.023254 104.443897 72.803192 C 102.98599 71.214624 100.922915 70.306871 98.79107 70.306871 C 94.52738 70.306871 91.054536 73.862238 91.054536 78.235958 C 91.054536 78.854881 91.123305 79.466927 91.253966 80.051465 C 91.315859 80.312788 91.247089 80.587865 91.075166 80.794172 C 90.896367 81.00048 90.641921 81.131141 90.366844 81.096757 C 83.675601 80.752911 77.376344 77.692682 72.885715 72.638146 C 72.548746 73.539023 72.376823 74.501791 72.376823 75.478314 C 72.376823 78.132805 73.662807 80.608496 75.829037 82.087033 C 76.145375 82.300218 76.276036 82.699079 76.159129 83.063556 C 76.042221 83.428032 75.698375 83.675601 75.313268 83.654971 C 74.322991 83.620586 73.339592 83.428032 72.411208 83.091063 C 72.940731 86.323215 75.347652 88.936445 78.517912 89.582875 C 78.90302 89.665398 79.184973 90.002367 79.198727 90.401228 C 79.212481 90.793213 78.958035 91.150813 78.572927 91.253966 C 77.665174 91.508412 76.73679 91.62532 75.801529 91.590935 C 77.09439 94.121642 79.652604 95.772102 82.513402 95.827118 C 82.871002 95.833995 83.194217 96.06781 83.304248 96.404779 C 83.421155 96.748625 83.311125 97.126855 83.029171 97.353794 C 80.168373 99.650685 76.791805 100.984807 73.195177 101.259884 Z M 73.195177 101.259884 " transform="matrix(0.568023,0,0,0.568023,1.15,1.15)"/>
<path style=" stroke:none;fill-rule:nonzero;fill:rgb(78.039217%,92.941177%,90.196079%);fill-opacity:1;" d="M 86.359375 56.554688 C 87.46875 54.449219 88.101562 52.054688 88.101562 49.511719 C 88.101562 43.042969 84.039062 37.535156 78.332031 35.367188 C 78.332031 35.359375 78.332031 35.351562 78.332031 35.34375 C 78.332031 24.015625 69.148438 14.828125 57.816406 14.828125 C 48.257812 14.828125 40.25 21.375 37.96875 30.222656 C 36.527344 29.75 34.992188 29.484375 33.390625 29.484375 C 25.875 29.484375 19.691406 35.144531 18.84375 42.429688 C 13.757812 43.507812 9.941406 48.015625 9.941406 53.417969 C 9.941406 59.625 14.972656 64.65625 21.179688 64.65625 C 21.351562 64.65625 21.523438 64.644531 21.691406 64.632812 C 21.6875 64.804688 21.667969 64.972656 21.667969 65.144531 C 21.667969 76.207031 30.632812 85.171875 41.695312 85.171875 C 47.984375 85.171875 53.589844 82.269531 57.261719 77.734375 C 59.390625 79.90625 62.347656 81.265625 65.632812 81.265625 C 70.175781 81.265625 74.105469 78.675781 76.050781 74.894531 C 77.082031 75.222656 78.171875 75.402344 79.308594 75.402344 C 85.246094 75.402344 90.058594 70.589844 90.058594 64.65625 C 90.058594 61.421875 88.621094 58.527344 86.359375 56.554688 Z M 86.359375 56.554688 "/>
<path style=" stroke:none;fill-rule:nonzero;fill:rgb(99.215686%,98.823529%,93.725491%);fill-opacity:1;" d="M 75.890625 60.257812 L 75.890625 60.746094 L 78.820312 60.746094 L 78.820312 60.257812 C 78.820312 60.257812 82.964844 60.257812 84.195312 60.257812 C 86.621094 60.257812 88.589844 58.289062 88.589844 55.863281 C 88.589844 53.582031 86.851562 51.730469 84.628906 51.507812 C 84.652344 51.332031 84.683594 51.160156 84.683594 50.976562 C 84.683594 48.550781 82.714844 46.582031 80.285156 46.582031 C 78.882812 46.582031 77.644531 47.25 76.839844 48.277344 C 76.703125 45.703125 74.59375 43.648438 71.984375 43.648438 C 69.285156 43.648438 67.097656 45.835938 67.097656 48.535156 C 67.097656 48.96875 67.171875 49.382812 67.28125 49.785156 C 66.652344 49.027344 65.714844 48.535156 64.65625 48.535156 C 62.914062 48.535156 61.496094 49.839844 61.28125 51.519531 C 61.101562 51.496094 60.929688 51.464844 60.746094 51.464844 C 58.320312 51.464844 56.351562 53.433594 56.351562 55.863281 C 56.351562 58.289062 58.320312 60.257812 60.746094 60.257812 C 63.175781 60.257812 70.027344 60.257812 70.027344 60.257812 Z M 75.890625 60.257812 "/>
<path style=" stroke:none;fill-rule:nonzero;fill:rgb(27.843139%,16.862746%,16.078432%);fill-opacity:1;" d="M 71.984375 43.160156 C 69.019531 43.160156 66.609375 45.570312 66.609375 48.535156 C 66.609375 48.550781 66.609375 48.566406 66.609375 48.582031 C 66.019531 48.234375 65.347656 48.046875 64.65625 48.046875 C 62.867188 48.046875 61.324219 49.277344 60.886719 50.980469 C 60.839844 50.980469 60.792969 50.976562 60.746094 50.976562 C 58.054688 50.976562 55.863281 53.167969 55.863281 55.863281 C 55.863281 58.554688 58.054688 60.746094 60.746094 60.746094 L 75.890625 60.746094 C 76.160156 60.746094 76.378906 60.527344 76.378906 60.257812 C 76.378906 59.988281 76.160156 59.769531 75.890625 59.769531 L 60.746094 59.769531 C 58.589844 59.769531 56.839844 58.015625 56.839844 55.863281 C 56.839844 53.707031 58.589844 51.953125 60.746094 51.953125 C 60.859375 51.953125 60.972656 51.96875 61.082031 51.984375 L 61.21875 52.003906 C 61.242188 52.007812 61.261719 52.007812 61.28125 52.007812 C 61.519531 52.007812 61.730469 51.828125 61.765625 51.582031 C 61.949219 50.121094 63.195312 49.023438 64.65625 49.023438 C 65.519531 49.023438 66.339844 49.414062 66.902344 50.097656 C 67 50.214844 67.136719 50.277344 67.28125 50.277344 C 67.355469 50.277344 67.433594 50.257812 67.503906 50.222656 C 67.707031 50.117188 67.808594 49.882812 67.75 49.660156 C 67.640625 49.234375 67.585938 48.878906 67.585938 48.535156 C 67.585938 46.109375 69.558594 44.136719 71.984375 44.136719 C 74.308594 44.136719 76.230469 45.96875 76.355469 48.304688 C 76.363281 48.507812 76.5 48.679688 76.695312 48.742188 C 76.742188 48.757812 76.792969 48.765625 76.84375 48.765625 C 76.988281 48.765625 77.132812 48.699219 77.226562 48.578125 C 77.980469 47.617188 79.09375 47.070312 80.285156 47.070312 C 82.441406 47.070312 84.195312 48.820312 84.195312 50.976562 C 84.195312 51.089844 84.179688 51.203125 84.164062 51.3125 L 84.144531 51.449219 C 84.128906 51.582031 84.167969 51.710938 84.25 51.8125 C 84.332031 51.917969 84.449219 51.980469 84.582031 51.996094 C 86.589844 52.195312 88.101562 53.859375 88.101562 55.863281 C 88.101562 58.015625 86.351562 59.769531 84.195312 59.769531 L 78.820312 59.769531 C 78.550781 59.769531 78.332031 59.988281 78.332031 60.257812 C 78.332031 60.527344 78.550781 60.746094 78.820312 60.746094 L 84.195312 60.746094 C 86.886719 60.746094 89.078125 58.554688 89.078125 55.863281 C 89.078125 53.519531 87.429688 51.550781 85.167969 51.097656 C 85.171875 51.058594 85.171875 51.015625 85.171875 50.976562 C 85.171875 48.285156 82.980469 46.09375 80.285156 46.09375 C 79.136719 46.09375 78.046875 46.5 77.175781 47.230469 C 76.59375 44.878906 74.480469 43.160156 71.984375 43.160156 Z M 71.984375 43.160156 "/>
<path style=" stroke:none;fill-rule:nonzero;fill:rgb(27.843139%,16.862746%,16.078432%);fill-opacity:1;" d="M 70.515625 50 C 69.144531 50 67.96875 50.976562 67.671875 52.289062 C 67.3125 52.070312 66.902344 51.953125 66.488281 51.953125 C 65.3125 51.953125 64.339844 52.832031 64.1875 53.972656 C 63.988281 53.929688 63.800781 53.90625 63.617188 53.90625 C 62.121094 53.90625 60.871094 55.082031 60.765625 56.578125 C 60.757812 56.710938 60.859375 56.828125 60.992188 56.839844 C 61 56.839844 61.003906 56.839844 61.011719 56.839844 C 61.136719 56.839844 61.246094 56.742188 61.253906 56.613281 C 61.339844 55.371094 62.378906 54.398438 63.617188 54.398438 C 63.839844 54.398438 64.074219 54.4375 64.335938 54.519531 C 64.359375 54.527344 64.382812 54.53125 64.402344 54.53125 C 64.457031 54.53125 64.511719 54.511719 64.554688 54.476562 C 64.617188 54.433594 64.65625 54.351562 64.65625 54.273438 C 64.65625 53.265625 65.476562 52.441406 66.488281 52.441406 C 66.921875 52.441406 67.351562 52.605469 67.691406 52.90625 C 67.734375 52.945312 67.792969 52.964844 67.851562 52.964844 C 67.882812 52.964844 67.914062 52.960938 67.941406 52.949219 C 68.027344 52.914062 68.085938 52.832031 68.09375 52.742188 C 68.195312 51.476562 69.257812 50.488281 70.515625 50.488281 C 70.71875 50.488281 70.933594 50.523438 71.183594 50.59375 C 71.207031 50.601562 71.230469 50.601562 71.25 50.601562 C 71.359375 50.601562 71.453125 50.53125 71.484375 50.425781 C 71.523438 50.296875 71.445312 50.160156 71.316406 50.125 C 71.023438 50.039062 70.765625 50 70.515625 50 Z M 70.515625 50 "/>
<path style=" stroke:none;fill-rule:nonzero;fill:rgb(27.843139%,16.862746%,16.078432%);fill-opacity:1;" d="M 84.082031 51.464844 C 82.785156 51.464844 81.628906 52.34375 81.273438 53.597656 C 81.234375 53.726562 81.3125 53.863281 81.441406 53.898438 C 81.464844 53.90625 81.488281 53.90625 81.507812 53.90625 C 81.613281 53.90625 81.710938 53.835938 81.742188 53.730469 C 82.039062 52.683594 83.003906 51.953125 84.082031 51.953125 C 84.195312 51.953125 84.304688 51.96875 84.414062 51.980469 C 84.425781 51.984375 84.4375 51.984375 84.449219 51.984375 C 84.566406 51.984375 84.671875 51.894531 84.6875 51.773438 C 84.707031 51.640625 84.613281 51.515625 84.480469 51.5 C 84.347656 51.480469 84.214844 51.464844 84.082031 51.464844 Z M 84.082031 51.464844 "/>
<path style=" stroke:none;fill-rule:nonzero;fill:rgb(0%,58.431375%,100%);fill-opacity:1;" d="M 16.292969 50.976562 L 6.523438 50.976562 C 6.253906 50.976562 6.035156 50.757812 6.035156 50.488281 C 6.035156 50.21875 6.253906 50 6.523438 50 L 16.292969 50 C 16.5625 50 16.78125 50.21875 16.78125 50.488281 C 16.78125 50.757812 16.5625 50.976562 16.292969 50.976562 Z M 16.292969 50.976562 "/>
<path style=" stroke:none;fill-rule:nonzero;fill:rgb(0%,58.431375%,100%);fill-opacity:1;" d="M 19.222656 50.976562 L 18.246094 50.976562 C 17.976562 50.976562 17.757812 50.757812 17.757812 50.488281 C 17.757812 50.21875 17.976562 50 18.246094 50 L 19.222656 50 C 19.496094 50 19.714844 50.21875 19.714844 50.488281 C 19.714844 50.757812 19.496094 50.976562 19.222656 50.976562 Z M 19.222656 50.976562 "/>
<path style=" stroke:none;fill-rule:nonzero;fill:rgb(0%,58.431375%,100%);fill-opacity:1;" d="M 24.101562 52.929688 L 15.316406 52.929688 C 15.046875 52.929688 14.828125 52.710938 14.828125 52.441406 C 14.828125 52.171875 15.046875 51.953125 15.316406 51.953125 L 24.101562 51.953125 C 24.371094 51.953125 24.589844 52.171875 24.589844 52.441406 C 24.589844 52.710938 24.371094 52.929688 24.101562 52.929688 Z M 24.101562 52.929688 "/>
<path style=" stroke:none;fill-rule:nonzero;fill:rgb(0%,58.431375%,100%);fill-opacity:1;" d="M 13.363281 52.929688 L 12.386719 52.929688 C 12.117188 52.929688 11.898438 52.710938 11.898438 52.441406 C 11.898438 52.171875 12.117188 51.953125 12.386719 51.953125 L 13.363281 51.953125 C 13.632812 51.953125 13.851562 52.171875 13.851562 52.441406 C 13.851562 52.710938 13.632812 52.929688 13.363281 52.929688 Z M 13.363281 52.929688 "/>
<path style=" stroke:none;fill-rule:nonzero;fill:rgb(0%,58.431375%,100%);fill-opacity:1;" d="M 10.429688 52.929688 L 8.476562 52.929688 C 8.207031 52.929688 7.988281 52.710938 7.988281 52.441406 C 7.988281 52.171875 8.207031 51.953125 8.476562 51.953125 L 10.429688 51.953125 C 10.699219 51.953125 10.921875 52.171875 10.921875 52.441406 C 10.921875 52.710938 10.703125 52.929688 10.429688 52.929688 Z M 10.429688 52.929688 "/>
<path style=" stroke:none;fill-rule:nonzero;fill:rgb(0%,58.431375%,100%);fill-opacity:1;" d="M 16.292969 54.886719 L 14.339844 54.886719 C 14.070312 54.886719 13.851562 54.667969 13.851562 54.398438 C 13.851562 54.125 14.070312 53.90625 14.339844 53.90625 L 16.292969 53.90625 C 16.5625 53.90625 16.78125 54.125 16.78125 54.398438 C 16.78125 54.667969 16.5625 54.886719 16.292969 54.886719 Z M 16.292969 54.886719 "/>
<path style=" stroke:none;fill-rule:nonzero;fill:rgb(0%,58.431375%,100%);fill-opacity:1;" d="M 19.222656 46.09375 C 19.050781 46.09375 18.421875 46.09375 18.246094 46.09375 C 17.976562 46.09375 17.757812 46.3125 17.757812 46.582031 C 17.757812 46.851562 17.976562 47.070312 18.246094 47.070312 C 18.421875 47.070312 19.050781 47.070312 19.222656 47.070312 C 19.496094 47.070312 19.714844 46.851562 19.714844 46.582031 C 19.714844 46.3125 19.496094 46.09375 19.222656 46.09375 Z M 19.222656 46.09375 "/>
<path style=" stroke:none;fill-rule:nonzero;fill:rgb(0%,58.431375%,100%);fill-opacity:1;" d="M 19.222656 48.046875 C 19.050781 48.046875 14.511719 48.046875 14.339844 48.046875 C 14.070312 48.046875 13.851562 48.265625 13.851562 48.535156 C 13.851562 48.804688 14.070312 49.023438 14.339844 49.023438 C 14.511719 49.023438 19.050781 49.023438 19.222656 49.023438 C 19.496094 49.023438 19.714844 48.804688 19.714844 48.535156 C 19.714844 48.265625 19.496094 48.046875 19.222656 48.046875 Z M 19.222656 48.046875 "/>
<path style=" stroke:none;fill-rule:nonzero;fill:rgb(0%,58.431375%,100%);fill-opacity:1;" d="M 24.109375 50 C 23.9375 50 21.351562 50 21.179688 50 C 20.910156 50 20.691406 50.21875 20.691406 50.488281 C 20.691406 50.757812 20.910156 50.976562 21.179688 50.976562 C 21.351562 50.976562 23.9375 50.976562 24.109375 50.976562 C 24.378906 50.976562 24.597656 50.757812 24.597656 50.488281 C 24.597656 50.21875 24.378906 50 24.109375 50 Z M 24.109375 50 "/>
<path style=" stroke:none;fill-rule:nonzero;fill:rgb(0%,58.431375%,100%);fill-opacity:1;" d="M 71.984375 24.597656 L 62.210938 24.597656 C 61.941406 24.597656 61.722656 24.378906 61.722656 24.109375 C 61.722656 23.839844 61.941406 23.621094 62.210938 23.621094 L 71.984375 23.621094 C 72.253906 23.621094 72.472656 23.839844 72.472656 24.109375 C 72.472656 24.378906 72.253906 24.597656 71.984375 24.597656 Z M 71.984375 24.597656 "/>
<path style=" stroke:none;fill-rule:nonzero;fill:rgb(0%,58.431375%,100%);fill-opacity:1;" d="M 75.890625 24.597656 L 73.9375 24.597656 C 73.667969 24.597656 73.449219 24.378906 73.449219 24.109375 C 73.449219 23.839844 73.667969 23.621094 73.9375 23.621094 L 75.890625 23.621094 C 76.160156 23.621094 76.378906 23.839844 76.378906 24.109375 C 76.378906 24.378906 76.160156 24.597656 75.890625 24.597656 Z M 75.890625 24.597656 "/>
<path style=" stroke:none;fill-rule:nonzero;fill:rgb(0%,58.431375%,100%);fill-opacity:1;" d="M 80.777344 26.550781 L 71.003906 26.550781 C 70.734375 26.550781 70.515625 26.332031 70.515625 26.0625 C 70.515625 25.792969 70.734375 25.574219 71.003906 25.574219 L 80.777344 25.574219 C 81.046875 25.574219 81.265625 25.792969 81.265625 26.0625 C 81.265625 26.332031 81.046875 26.550781 80.777344 26.550781 Z M 80.777344 26.550781 "/>
<path style=" stroke:none;fill-rule:nonzero;fill:rgb(0%,58.431375%,100%);fill-opacity:1;" d="M 69.050781 26.550781 L 68.074219 26.550781 C 67.804688 26.550781 67.585938 26.332031 67.585938 26.0625 C 67.585938 25.792969 67.804688 25.574219 68.074219 25.574219 L 69.050781 25.574219 C 69.320312 25.574219 69.539062 25.792969 69.539062 26.0625 C 69.539062 26.332031 69.320312 26.550781 69.050781 26.550781 Z M 69.050781 26.550781 "/>
<path style=" stroke:none;fill-rule:nonzero;fill:rgb(0%,58.431375%,100%);fill-opacity:1;" d="M 66.089844 26.550781 L 64.167969 26.550781 C 63.898438 26.550781 63.679688 26.332031 63.679688 26.0625 C 63.679688 25.792969 63.898438 25.574219 64.167969 25.574219 L 66.089844 25.574219 C 66.359375 25.574219 66.578125 25.792969 66.578125 26.0625 C 66.578125 26.332031 66.359375 26.550781 66.089844 26.550781 Z M 66.089844 26.550781 "/>
<path style=" stroke:none;fill-rule:nonzero;fill:rgb(0%,58.431375%,100%);fill-opacity:1;" d="M 74.914062 22.644531 L 70.027344 22.644531 C 69.757812 22.644531 69.539062 22.425781 69.539062 22.15625 C 69.539062 21.886719 69.757812 21.667969 70.027344 21.667969 L 74.914062 21.667969 C 75.183594 21.667969 75.402344 21.886719 75.402344 22.15625 C 75.402344 22.425781 75.183594 22.644531 74.914062 22.644531 Z M 74.914062 22.644531 "/>
<path style=" stroke:none;fill-rule:nonzero;fill:rgb(0%,58.431375%,100%);fill-opacity:1;" d="M 71.984375 28.507812 L 70.027344 28.507812 C 69.757812 28.507812 69.539062 28.289062 69.539062 28.015625 C 69.539062 27.746094 69.757812 27.527344 70.027344 27.527344 L 71.984375 27.527344 C 72.253906 27.527344 72.472656 27.746094 72.472656 28.015625 C 72.472656 28.289062 72.253906 28.507812 71.984375 28.507812 Z M 71.984375 28.507812 "/>
<path style=" stroke:none;fill-rule:nonzero;fill:rgb(61.960787%,76.47059%,94.509804%);fill-opacity:1;" d="M 74.667969 50 C 74.667969 62.546875 64.5 72.714844 51.953125 72.714844 C 39.410156 72.714844 29.238281 62.546875 29.238281 50 C 29.238281 37.453125 39.410156 27.285156 51.953125 27.285156 C 64.5 27.285156 74.667969 37.453125 74.667969 50 Z M 74.667969 50 "/>
<path style=" stroke:none;fill-rule:nonzero;fill:rgb(27.843139%,16.862746%,16.078432%);fill-opacity:1;" d="M 51.953125 73.398438 C 39.050781 73.398438 28.554688 62.902344 28.554688 50 C 28.554688 37.097656 39.050781 26.601562 51.953125 26.601562 C 64.855469 26.601562 75.351562 37.097656 75.351562 50 C 75.351562 62.902344 64.855469 73.398438 51.953125 73.398438 Z M 51.953125 27.96875 C 39.804688 27.96875 29.921875 37.851562 29.921875 50 C 29.921875 62.148438 39.804688 72.03125 51.953125 72.03125 C 64.101562 72.03125 73.984375 62.148438 73.984375 50 C 73.984375 37.851562 64.101562 27.96875 51.953125 27.96875 Z M 51.953125 27.96875 "/>
<path style=" stroke:none;fill-rule:nonzero;fill:rgb(61.960787%,76.47059%,94.509804%);fill-opacity:1;" d="M 71.039062 50.117188 C 71.039062 60.65625 62.46875 69.203125 51.894531 69.203125 C 41.324219 69.203125 32.75 60.65625 32.75 50.117188 C 32.75 39.578125 41.324219 31.03125 51.894531 31.03125 C 62.46875 31.03125 71.039062 39.578125 71.039062 50.117188 Z M 71.039062 50.117188 "/>
<path style=" stroke:none;fill-rule:nonzero;fill:rgb(27.843139%,16.862746%,16.078432%);fill-opacity:1;" d="M 70.148438 45.101562 C 69.941406 45.101562 69.746094 44.96875 69.683594 44.757812 C 69.597656 44.488281 69.511719 44.222656 69.417969 43.960938 C 69.050781 42.9375 68.585938 41.9375 68.042969 40.992188 C 67.90625 40.761719 67.984375 40.460938 68.21875 40.328125 C 68.453125 40.1875 68.75 40.269531 68.886719 40.503906 C 69.460938 41.5 69.949219 42.550781 70.335938 43.628906 C 70.433594 43.90625 70.527344 44.1875 70.617188 44.46875 C 70.695312 44.726562 70.550781 45 70.292969 45.078125 C 70.246094 45.09375 70.195312 45.101562 70.148438 45.101562 Z M 70.148438 45.101562 "/>
<path style=" stroke:none;fill-rule:nonzero;fill:rgb(27.843139%,16.862746%,16.078432%);fill-opacity:1;" d="M 51.953125 69.574219 C 41.160156 69.574219 32.378906 60.820312 32.378906 50.058594 C 32.378906 39.296875 41.160156 30.542969 51.953125 30.542969 C 57.554688 30.542969 62.898438 32.941406 66.617188 37.128906 C 66.894531 37.441406 67.167969 37.769531 67.425781 38.105469 C 67.59375 38.316406 67.554688 38.625 67.34375 38.789062 C 67.128906 38.957031 66.824219 38.917969 66.65625 38.703125 C 66.410156 38.386719 66.152344 38.074219 65.886719 37.777344 C 62.355469 33.800781 57.277344 31.519531 51.953125 31.519531 C 41.699219 31.519531 33.359375 39.835938 33.359375 50.058594 C 33.359375 60.28125 41.699219 68.597656 51.953125 68.597656 C 62.207031 68.597656 70.550781 60.28125 70.550781 50.058594 C 70.550781 49.125 70.480469 48.191406 70.34375 47.277344 C 70.304688 47.011719 70.488281 46.761719 70.753906 46.722656 C 71.019531 46.679688 71.269531 46.863281 71.308594 47.128906 C 71.453125 48.089844 71.527344 49.074219 71.527344 50.058594 C 71.527344 60.820312 62.746094 69.574219 51.953125 69.574219 Z M 51.953125 69.574219 "/>
<path style=" stroke:none;fill-rule:nonzero;fill:rgb(99.215686%,98.823529%,93.725491%);fill-opacity:1;" d="M 36.808594 72.960938 C 36.808594 72.960938 38.339844 72.960938 40.230469 72.960938 C 42.117188 72.960938 43.648438 71.429688 43.648438 69.539062 C 43.648438 67.800781 42.34375 66.378906 40.664062 66.164062 C 40.691406 65.988281 40.71875 65.816406 40.71875 65.632812 C 40.71875 63.742188 39.1875 62.210938 37.300781 62.210938 C 36.289062 62.210938 35.394531 62.65625 34.769531 63.351562 C 34.394531 61.585938 32.828125 60.257812 30.949219 60.257812 C 28.789062 60.257812 27.039062 62.007812 27.039062 64.167969 C 27.039062 64.351562 27.070312 64.53125 27.09375 64.710938 C 26.675781 64.375 26.152344 64.167969 25.574219 64.167969 C 24.375 64.167969 23.382812 65.03125 23.175781 66.175781 C 23 66.148438 22.828125 66.121094 22.644531 66.121094 C 20.753906 66.121094 19.222656 67.652344 19.222656 69.539062 C 19.222656 71.429688 20.753906 72.960938 22.644531 72.960938 C 24.53125 72.960938 29.972656 72.960938 29.972656 72.960938 L 29.972656 73.449219 L 36.808594 73.449219 Z M 36.808594 72.960938 "/>
<path style=" stroke:none;fill-rule:nonzero;fill:rgb(27.843139%,16.862746%,16.078432%);fill-opacity:1;" d="M 38.519531 68.5625 C 38.386719 68.5625 38.277344 68.453125 38.277344 68.320312 C 38.277344 67.125 39.25 66.152344 40.441406 66.152344 C 40.476562 66.160156 41.164062 66.152344 41.660156 66.285156 C 41.789062 66.320312 41.867188 66.453125 41.832031 66.582031 C 41.796875 66.714844 41.660156 66.792969 41.53125 66.753906 C 41.097656 66.636719 40.457031 66.636719 40.445312 66.640625 C 39.519531 66.640625 38.765625 67.394531 38.765625 68.320312 C 38.765625 68.453125 38.65625 68.5625 38.519531 68.5625 Z M 38.519531 68.5625 "/>
<path style=" stroke:none;fill-rule:nonzero;fill:rgb(27.843139%,16.862746%,16.078432%);fill-opacity:1;" d="M 32.414062 72.960938 C 32.414062 73.230469 32.195312 73.449219 31.925781 73.449219 C 31.65625 73.449219 31.4375 73.230469 31.4375 72.960938 C 31.4375 72.691406 31.65625 72.472656 31.925781 72.472656 C 32.195312 72.472656 32.414062 72.691406 32.414062 72.960938 Z M 32.414062 72.960938 "/>
<path style=" stroke:none;fill-rule:nonzero;fill:rgb(27.843139%,16.862746%,16.078432%);fill-opacity:1;" d="M 40.230469 73.449219 L 36.808594 73.449219 C 36.539062 73.449219 36.320312 73.230469 36.320312 72.960938 C 36.320312 72.691406 36.539062 72.472656 36.808594 72.472656 L 40.230469 72.472656 C 41.847656 72.472656 43.160156 71.15625 43.160156 69.539062 C 43.160156 68.078125 42.0625 66.835938 40.601562 66.648438 C 40.472656 66.632812 40.355469 66.5625 40.273438 66.457031 C 40.195312 66.351562 40.164062 66.21875 40.183594 66.089844 C 40.207031 65.9375 40.230469 65.789062 40.230469 65.632812 C 40.230469 64.015625 38.914062 62.699219 37.300781 62.699219 C 36.46875 62.699219 35.699219 63.046875 35.132812 63.679688 C 35.007812 63.8125 34.816406 63.871094 34.640625 63.824219 C 34.464844 63.773438 34.328125 63.632812 34.289062 63.453125 C 33.957031 61.886719 32.550781 60.746094 30.949219 60.746094 C 29.0625 60.746094 27.527344 62.28125 27.527344 64.167969 C 27.527344 64.304688 27.550781 64.441406 27.570312 64.574219 C 27.597656 64.773438 27.507812 65.003906 27.332031 65.101562 C 27.15625 65.203125 26.945312 65.21875 26.789062 65.09375 C 26.433594 64.804688 26.015625 64.65625 25.574219 64.65625 C 24.632812 64.65625 23.824219 65.332031 23.65625 66.261719 C 23.609375 66.523438 23.367188 66.695312 23.101562 66.65625 C 22.949219 66.632812 22.800781 66.609375 22.644531 66.609375 C 21.027344 66.609375 19.714844 67.925781 19.714844 69.539062 C 19.714844 71.15625 21.027344 72.472656 22.644531 72.472656 L 29.972656 72.472656 C 30.242188 72.472656 30.460938 72.691406 30.460938 72.960938 C 30.460938 73.230469 30.242188 73.449219 29.972656 73.449219 L 22.644531 73.449219 C 20.488281 73.449219 18.734375 71.695312 18.734375 69.539062 C 18.734375 67.382812 20.488281 65.632812 22.644531 65.632812 C 22.703125 65.632812 22.757812 65.632812 22.8125 65.636719 C 23.21875 64.480469 24.316406 63.679688 25.574219 63.679688 C 25.914062 63.679688 26.25 63.738281 26.5625 63.855469 C 26.722656 61.574219 28.628906 59.769531 30.949219 59.769531 C 32.738281 59.769531 34.335938 60.871094 35.007812 62.480469 C 35.671875 61.992188 36.472656 61.722656 37.300781 61.722656 C 39.453125 61.722656 41.207031 63.476562 41.207031 65.632812 C 41.207031 65.679688 41.207031 65.726562 41.203125 65.769531 C 42.90625 66.207031 44.136719 67.75 44.136719 69.539062 C 44.136719 71.695312 42.386719 73.449219 40.230469 73.449219 Z M 40.230469 73.449219 "/>
<path style=" stroke:none;fill-rule:nonzero;fill:rgb(27.843139%,16.862746%,16.078432%);fill-opacity:1;" d="M 34.855469 72.472656 C 34.699219 72.472656 34.035156 72.472656 33.878906 72.472656 C 33.609375 72.472656 33.390625 72.691406 33.390625 72.960938 C 33.390625 73.230469 33.609375 73.449219 33.878906 73.449219 C 34.035156 73.449219 34.699219 73.449219 34.855469 73.449219 C 35.125 73.449219 35.34375 73.230469 35.34375 72.960938 C 35.34375 72.691406 35.125 72.472656 34.855469 72.472656 Z M 34.855469 72.472656 "/>
<path style=" stroke:none;fill-rule:nonzero;fill:rgb(0%,58.431375%,100%);fill-opacity:1;" d="M 64.597656 42.9375 C 63.722656 43.335938 62.78125 43.605469 61.789062 43.722656 C 62.796875 43.105469 63.574219 42.128906 63.9375 40.960938 C 62.992188 41.535156 61.949219 41.949219 60.835938 42.171875 C 59.945312 41.203125 58.671875 40.597656 57.265625 40.597656 C 54.566406 40.597656 52.382812 42.832031 52.382812 45.589844 C 52.382812 45.980469 52.425781 46.363281 52.507812 46.726562 C 48.445312 46.519531 44.84375 44.53125 42.433594 41.511719 C 42.011719 42.246094 41.773438 43.105469 41.773438 44.019531 C 41.773438 45.753906 42.632812 47.28125 43.945312 48.179688 C 43.144531 48.152344 42.390625 47.929688 41.730469 47.554688 C 41.730469 47.574219 41.730469 47.597656 41.730469 47.617188 C 41.730469 50.039062 43.414062 52.054688 45.648438 52.515625 C 45.238281 52.628906 44.808594 52.691406 44.363281 52.691406 C 44.046875 52.691406 43.742188 52.660156 43.441406 52.601562 C 44.066406 54.585938 45.871094 56.027344 48.007812 56.070312 C 46.335938 57.410156 44.230469 58.207031 41.941406 58.207031 C 41.546875 58.207031 41.15625 58.183594 40.773438 58.136719 C 42.9375 59.554688 45.503906 60.378906 48.265625 60.378906 C 57.253906 60.378906 62.171875 52.769531 62.171875 46.171875 C 62.171875 45.953125 62.164062 45.738281 62.15625 45.523438 C 63.113281 44.820312 63.941406 43.941406 64.597656 42.9375 Z M 64.597656 42.9375 "/>
<path style=" stroke:none;fill-rule:nonzero;fill:rgb(27.843139%,16.862746%,16.078432%);fill-opacity:1;" d="M 48.265625 60.867188 C 45.511719 60.867188 42.828125 60.066406 40.507812 58.546875 C 40.316406 58.421875 40.238281 58.183594 40.316406 57.972656 C 40.394531 57.757812 40.609375 57.617188 40.832031 57.652344 C 42.890625 57.898438 44.972656 57.449219 46.722656 56.375 C 44.976562 55.90625 43.542969 54.558594 42.976562 52.746094 C 42.925781 52.582031 42.964844 52.402344 43.078125 52.273438 C 43.191406 52.144531 43.367188 52.085938 43.535156 52.121094 C 43.542969 52.121094 43.550781 52.125 43.554688 52.125 C 42.144531 51.125 41.242188 49.457031 41.242188 47.617188 C 41.242188 47.445312 41.335938 47.25 41.484375 47.164062 C 41.636719 47.074219 41.820312 47.042969 41.972656 47.128906 C 42.101562 47.203125 42.234375 47.269531 42.367188 47.328125 C 41.671875 46.390625 41.28125 45.234375 41.28125 44.023438 C 41.28125 43.054688 41.535156 42.101562 42.007812 41.269531 C 42.089844 41.128906 42.234375 41.035156 42.394531 41.023438 C 42.5625 41.011719 42.714844 41.078125 42.816406 41.207031 C 45.085938 44.050781 48.378906 45.847656 51.925781 46.195312 C 51.902344 45.996094 51.894531 45.792969 51.894531 45.589844 C 51.894531 42.566406 54.304688 40.109375 57.265625 40.109375 C 58.65625 40.109375 60 40.664062 60.996094 41.640625 C 61.941406 41.421875 62.84375 41.054688 63.6875 40.546875 C 63.859375 40.4375 64.078125 40.453125 64.238281 40.578125 C 64.398438 40.703125 64.464844 40.914062 64.402344 41.109375 C 64.203125 41.746094 63.894531 42.332031 63.492188 42.847656 C 63.796875 42.746094 64.097656 42.628906 64.394531 42.496094 C 64.589844 42.40625 64.824219 42.457031 64.964844 42.621094 C 65.105469 42.785156 65.121094 43.023438 65.003906 43.207031 C 64.359375 44.191406 63.570312 45.050781 62.652344 45.761719 C 62.65625 45.898438 62.660156 46.035156 62.660156 46.171875 C 62.660156 53.394531 57.277344 60.867188 48.265625 60.867188 Z M 42.726562 58.667969 C 44.460938 59.472656 46.34375 59.890625 48.265625 59.890625 C 56.664062 59.890625 61.683594 52.914062 61.683594 46.171875 C 61.683594 45.960938 61.679688 45.75 61.667969 45.542969 C 61.664062 45.378906 61.738281 45.226562 61.867188 45.128906 C 62.34375 44.777344 62.78125 44.386719 63.183594 43.957031 C 62.746094 44.070312 62.300781 44.152344 61.847656 44.207031 C 61.625 44.242188 61.402344 44.101562 61.328125 43.882812 C 61.253906 43.667969 61.339844 43.425781 61.535156 43.304688 C 62.058594 42.984375 62.507812 42.558594 62.859375 42.058594 C 62.238281 42.320312 61.59375 42.519531 60.929688 42.652344 C 60.761719 42.6875 60.589844 42.628906 60.476562 42.503906 C 59.648438 41.601562 58.476562 41.085938 57.265625 41.085938 C 54.84375 41.085938 52.871094 43.105469 52.871094 45.589844 C 52.871094 45.941406 52.910156 46.289062 52.984375 46.621094 C 53.019531 46.769531 52.980469 46.925781 52.882812 47.042969 C 52.78125 47.160156 52.636719 47.234375 52.480469 47.214844 C 48.679688 47.019531 45.101562 45.28125 42.550781 42.410156 C 42.359375 42.921875 42.261719 43.46875 42.261719 44.023438 C 42.261719 45.53125 42.992188 46.9375 44.222656 47.777344 C 44.402344 47.898438 44.476562 48.125 44.410156 48.332031 C 44.34375 48.539062 44.148438 48.679688 43.929688 48.667969 C 43.367188 48.648438 42.808594 48.539062 42.28125 48.347656 C 42.582031 50.183594 43.949219 51.667969 45.75 52.035156 C 45.96875 52.082031 46.128906 52.273438 46.136719 52.5 C 46.144531 52.722656 46 52.925781 45.78125 52.984375 C 45.265625 53.128906 44.738281 53.195312 44.207031 53.175781 C 44.941406 54.613281 46.394531 55.550781 48.019531 55.582031 C 48.222656 55.585938 48.40625 55.71875 48.46875 55.910156 C 48.535156 56.105469 48.472656 56.320312 48.3125 56.449219 C 46.6875 57.753906 44.769531 58.511719 42.726562 58.667969 Z M 42.726562 58.667969 "/>
</g>
</svg>
